<svg id="svg" version="1.1" xmlns="http://www.w3.org/2000/svg" xmlns:xlink="http://www.w3.org/1999/xlink" width="400" height="477.6666666666667" viewBox="0, 0, 400,477.6666666666667"><g id="svgg"><path id="path0" d="M214.000 6.573 C 214.000 6.682,214.537 8.430,215.193 10.459 C 225.011 40.830,229.009 100.775,225.156 159.833 C 223.269 188.749,220.260 214.947,212.672 268.500 C 208.418 298.518,206.347 314.672,206.336 317.917 C 206.333 318.657,206.391 318.667,210.756 318.667 L 215.178 318.667 216.252 314.201 C 218.620 304.352,222.128 294.687,234.770 263.167 C 253.704 215.959,261.321 192.875,266.832 166.000 C 277.370 114.605,271.741 62.473,252.298 31.404 C 244.687 19.241,232.012 7.310,226.236 6.872 C 222.186 6.565,214.000 6.365,214.000 6.573 M176.543 6.915 C 170.281 7.188,157.235 19.607,149.203 32.940 C 130.940 63.256,125.380 114.089,135.033 162.500 C 140.493 189.881,148.972 215.361,167.934 261.369 C 183.065 298.082,185.519 304.820,188.470 317.750 L 188.679 318.667 192.706 318.667 L 196.732 318.667 196.519 316.583 C 195.558 307.171,194.153 296.372,191.454 277.667 C 182.301 214.222,179.562 191.617,177.518 162.667 C 173.294 102.837,177.369 39.646,187.355 10.103 C 187.893 8.511,188.333 7.086,188.333 6.937 C 188.333 6.680,182.203 6.668,176.543 6.915 M147.833 8.895 C 102.808 19.104,70.538 46.494,59.706 83.696 C 46.413 129.353,60.635 175.489,106.965 237.000 C 115.578 248.436,123.567 258.225,148.860 288.333 C 159.757 301.305,166.040 309.285,170.317 315.583 L 172.410 318.667 176.372 318.667 C 180.987 318.667,180.824 318.871,179.213 315.113 C 174.967 305.211,169.003 295.026,152.457 269.424 C 102.632 192.325,87.942 156.482,88.764 114.014 C 89.674 66.972,108.974 31.423,144.500 11.352 C 147.618 9.590,149.247 8.552,148.650 8.705 C 148.567 8.727,148.200 8.812,147.833 8.895 M254.003 8.941 C 254.005 9.065,255.381 9.917,257.060 10.833 C 307.694 38.465,326.957 102.394,304.646 168.753 C 295.537 195.845,282.485 220.603,251.006 270.500 C 235.102 295.710,224.333 315.014,224.333 318.314 C 224.333 318.545,225.861 318.662,228.750 318.653 L 233.167 318.639 234.593 316.348 C 238.041 310.807,245.255 301.589,263.169 279.833 C 325.958 203.579,347.202 162.475,347.156 117.333 C 347.104 65.879,319.600 29.531,268.000 12.724 C 262.044 10.784,253.999 8.610,254.003 8.941 M180.872 350.029 C 178.977 351.520,179.000 351.296,179.000 368.161 C 179.000 385.314,179.010 385.406,181.063 386.658 C 182.757 387.691,219.543 387.711,221.234 386.680 C 223.367 385.379,223.333 385.680,223.333 368.151 C 223.333 350.725,223.374 351.092,221.320 349.879 C 219.701 348.922,182.101 349.062,180.872 350.029 M157.631 406.832 C 155.382 408.055,155.510 406.494,155.408 434.065 C 155.309 461.191,155.343 461.803,157.189 465.575 C 160.438 472.217,168.750 475.564,171.572 471.367 C 172.462 470.044,172.741 464.335,171.917 464.331 C 170.700 464.326,168.802 463.486,167.645 462.441 C 165.443 460.452,165.333 459.658,165.333 445.773 L 165.333 433.667 169.250 433.666 C 175.538 433.665,176.655 432.691,176.930 426.963 L 177.089 423.667 171.211 423.667 L 165.333 423.667 165.333 415.000 L 165.333 406.333 161.917 406.347 C 159.622 406.356,158.215 406.515,157.631 406.832 M237.433 406.987 C 235.217 408.338,235.333 406.532,235.333 439.500 C 235.333 472.468,235.217 470.662,237.433 472.013 C 238.308 472.547,239.116 472.664,241.917 472.665 L 245.333 472.667 245.333 456.399 L 245.333 440.131 246.198 438.395 C 249.490 431.789,261.050 430.214,266.998 435.561 C 269.984 438.246,269.811 437.166,270.000 454.349 C 270.207 473.226,269.994 472.663,276.936 472.665 L 280.372 472.667 280.259 455.583 C 280.149 439.029,280.123 438.433,279.414 436.333 C 275.434 424.550,259.944 418.826,247.250 424.448 L 245.333 425.297 245.333 415.815 L 245.333 406.333 241.917 406.335 C 239.116 406.336,238.308 406.453,237.433 406.987 M302.757 407.029 C 298.315 408.436,294.269 412.306,292.632 416.711 L 291.844 418.833 291.744 443.899 C 291.620 474.693,291.160 472.663,298.250 472.665 L 301.667 472.667 301.667 453.167 L 301.667 433.667 306.417 433.666 C 313.735 433.665,314.759 432.882,314.947 427.143 L 315.061 423.667 308.364 423.667 L 301.667 423.667 301.667 422.883 C 301.667 419.036,304.518 416.555,309.299 416.240 C 313.861 415.940,314.999 414.579,314.999 409.417 L 315.000 406.333 309.917 406.352 C 305.817 406.367,304.432 406.498,302.757 407.029 M380.100 406.987 C 377.901 408.327,378.000 407.013,378.000 434.913 C 378.000 456.538,378.074 460.477,378.510 462.153 C 380.386 469.353,387.236 474.734,392.142 472.860 C 394.248 472.056,394.736 471.116,394.925 467.498 L 395.084 464.458 393.178 464.032 C 390.885 463.519,389.033 461.870,388.409 459.787 C 388.101 458.760,388.000 451.978,388.000 432.378 L 388.000 406.333 384.583 406.335 C 381.783 406.336,380.974 406.453,380.100 406.987 M92.833 413.709 C 85.306 414.650,79.062 418.408,75.529 424.122 C 73.088 428.072,72.402 431.121,70.833 445.000 C 69.011 461.122,67.689 465.746,65.367 464.119 C 63.654 462.919,62.481 459.467,60.330 449.285 C 56.708 432.144,54.282 428.167,47.445 428.167 C 40.832 428.167,38.091 433.036,34.328 451.468 C 31.960 463.069,30.567 466.010,28.400 463.990 C 26.026 461.779,24.731 455.590,24.008 443.000 C 23.078 426.821,21.695 423.141,16.558 423.184 C 10.161 423.236,7.818 426.463,7.857 435.167 C 7.945 454.477,20.543 474.380,31.379 472.325 C 36.617 471.331,39.558 467.254,43.274 455.832 C 47.229 443.679,47.486 443.664,51.654 455.333 C 55.926 467.296,58.818 471.425,63.544 472.309 C 73.128 474.102,83.135 460.480,86.987 440.399 C 88.920 430.326,91.642 424.514,97.458 418.042 C 101.266 413.803,100.185 412.790,92.833 413.709 M114.059 423.010 C 105.924 425.141,99.165 431.582,97.702 438.600 C 97.241 440.810,97.214 455.265,97.666 457.705 C 100.328 472.060,122.121 479.380,134.477 470.069 L 135.788 469.081 136.485 470.116 C 137.768 472.020,139.136 472.667,141.883 472.667 L 144.333 472.667 144.328 456.583 C 144.323 438.990,144.246 438.123,142.365 434.395 C 137.718 425.190,125.104 420.116,114.059 423.010 M198.333 422.943 C 190.289 425.205,183.972 431.397,182.672 438.295 C 182.126 441.192,182.248 456.429,182.837 458.927 C 187.075 476.902,216.697 479.714,225.193 462.948 C 226.271 460.820,226.375 461.001,223.162 459.408 C 218.956 457.322,217.954 457.443,214.667 460.439 C 208.263 466.274,196.919 465.097,193.239 458.214 C 192.188 456.250,192.094 440.650,193.120 438.586 C 196.652 431.481,208.788 430.123,214.746 436.166 C 217.539 439.000,219.030 439.134,223.417 436.947 C 226.338 435.491,226.352 435.458,225.020 433.135 C 220.249 424.818,208.129 420.189,198.333 422.943 M324.847 423.910 C 321.665 424.718,321.667 424.709,321.667 442.448 C 321.667 460.001,321.706 460.319,324.359 464.292 C 333.213 477.552,354.794 477.541,363.654 464.273 C 366.324 460.274,366.333 460.195,366.333 440.798 L 366.333 423.667 363.250 423.667 C 356.361 423.668,356.538 423.198,356.333 441.941 C 356.148 458.900,356.265 458.057,353.749 460.531 C 348.831 465.369,339.239 465.388,334.273 460.570 C 331.605 457.981,331.682 458.586,331.674 440.083 L 331.667 423.667 328.583 423.705 C 326.887 423.727,325.206 423.819,324.847 423.910 M125.729 432.992 C 129.798 434.249,132.943 437.054,133.874 440.257 C 134.725 443.185,134.414 455.689,133.445 457.508 C 128.741 466.336,112.960 466.392,108.264 457.597 C 107.529 456.220,107.500 455.867,107.500 448.167 L 107.500 440.167 108.398 438.639 C 111.469 433.415,119.075 430.937,125.729 432.992 " stroke="none" fill="#144c6c" fill-rule="evenodd"></path><path id="path1" d="M84.156 42.083 L 82.167 44.167 84.250 42.177 C 86.185 40.329,86.486 40.000,86.240 40.000 C 86.188 40.000,85.250 40.938,84.156 42.083 " stroke="none" fill="#184c6c" fill-rule="evenodd"></path><path id="path2" d="M84.156 42.083 L 82.167 44.167 84.250 42.177 C 86.185 40.329,86.486 40.000,86.240 40.000 C 86.188 40.000,85.250 40.938,84.156 42.083 " stroke="none" fill="#184c6c" fill-rule="evenodd"></path><path id="path3" d="M84.156 42.083 L 82.167 44.167 84.250 42.177 C 86.185 40.329,86.486 40.000,86.240 40.000 C 86.188 40.000,85.250 40.938,84.156 42.083 " stroke="none" fill="#184c6c" fill-rule="evenodd"></path><path id="path4" d="M84.156 42.083 L 82.167 44.167 84.250 42.177 C 86.185 40.329,86.486 40.000,86.240 40.000 C 86.188 40.000,85.250 40.938,84.156 42.083 " stroke="none" fill="#184c6c" fill-rule="evenodd"></path><path id="path5" d="M84.156 42.083 L 82.167 44.167 84.250 42.177 C 86.185 40.329,86.486 40.000,86.240 40.000 C 86.188 40.000,85.250 40.938,84.156 42.083 " stroke="none" fill="#184c6c" fill-rule="evenodd"></path><path id="path6" d="M84.156 42.083 L 82.167 44.167 84.250 42.177 C 86.185 40.329,86.486 40.000,86.240 40.000 C 86.188 40.000,85.250 40.938,84.156 42.083 " stroke="none" fill="#184c6c" fill-rule="evenodd"></path><path id="path7" d="M84.156 42.083 L 82.167 44.167 84.250 42.177 C 86.185 40.329,86.486 40.000,86.240 40.000 C 86.188 40.000,85.250 40.938,84.156 42.083 " stroke="none" fill="#184c6c" fill-rule="evenodd"></path><path id="path8" d="M84.156 42.083 L 82.167 44.167 84.250 42.177 C 86.185 40.329,86.486 40.000,86.240 40.000 C 86.188 40.000,85.250 40.938,84.156 42.083 " stroke="none" fill="#184c6c" fill-rule="evenodd"></path></g></svg>